<svg xmlns="http://www.w3.org/2000/svg" width="14" height="14" viewBox="0 0 14 14" fill="none">
  <path d="M7 0C3.14628 0 0 3.14628 0 7C0 10.8537 3.14628 14 7 14C10.8537 14 14 10.8537 14 7C14 3.14628 10.8537 0 7 0ZM10.2394 7.74468H7.81915V10.1649C7.81915 10.5745 7.48404 10.9096 7.07447 10.9096C6.66489 10.9096 6.32979 10.5745 6.32979 10.1649V7.74468H3.90957C3.5 7.74468 3.16489 7.40957 3.16489 7C3.16489 6.59043 3.5 6.25532 3.90957 6.25532H6.32979V3.83511C6.32979 3.42553 6.66489 3.09043 7.07447 3.09043C7.48404 3.09043 7.81915 3.42553 7.81915 3.83511V6.25532H10.2394C10.6489 6.25532 10.984 6.59043 10.984 7C10.984 7.40957 10.6489 7.74468 10.2394 7.74468Z" fill="white"/>
</svg>