<svg xmlns="http://www.w3.org/2000/svg" width="26" height="28" viewBox="0 0 26 28" fill="none">
  <path d="M23.3575 2.7075H20.4494V4.15903C20.4494 4.34641 20.2733 4.49825 20.056 4.49825C19.8387 4.49825 19.6625 4.34641 19.6625 4.15903V2.7075H17.743V1.50159C17.743 1.04768 18.1736 0.678427 18.7028 0.678427C19.232 0.678427 19.6625 1.04768 19.6625 1.50159V2.7075H20.4494V1.50159C20.4494 0.673585 19.6659 0 18.7027 0C17.7397 0 16.9561 0.673585 16.9561 1.50159V2.7075H14.0276V4.15903C14.0276 4.34641 13.8514 4.49825 13.6341 4.49825C13.4167 4.49825 13.2406 4.34641 13.2406 4.15903V2.7075H11.3212V1.50159C11.3212 1.04768 11.7517 0.678427 12.2809 0.678427C12.8101 0.678427 13.2406 1.04768 13.2406 1.50159V2.7075H14.0276V1.50159C14.0276 0.673585 13.2441 0 12.2809 0C11.3178 0 10.5343 0.673585 10.5343 1.50159V2.7075H7.60574V4.15903C7.60574 4.34641 7.42959 4.49825 7.2123 4.49825C6.99502 4.49825 6.81887 4.34641 6.81887 4.15903V2.7075H4.89939V1.50159C4.89939 1.04768 5.32992 0.678427 5.8591 0.678427C6.38828 0.678427 6.81881 1.04768 6.81881 1.50159V2.7075H7.60574V1.50159C7.60574 0.673585 6.82219 0 5.8591 0C4.89601 0 4.11246 0.673585 4.11246 1.50159V2.7075H2.22632L2.22681 5.52585H23.358L23.3575 2.7075Z" fill="black" fill-opacity="0.5"/>
  <path d="M23.358 6.20422H2.22681L2.22948 22H23.3607L23.358 6.20422ZM11.2142 19.7709C11.2142 19.9583 11.0381 20.1102 10.8208 20.1102H5.75054C5.5332 20.1102 5.3571 19.9583 5.3571 19.7709V15.4097C5.3571 15.2224 5.53326 15.0705 5.75054 15.0705H10.8208C11.0381 15.0705 11.2142 15.2223 11.2142 15.4097V19.7709ZM11.2142 12.796C11.2142 12.9834 11.0381 13.1353 10.8208 13.1353H5.75054C5.5332 13.1353 5.3571 12.9834 5.3571 12.796V8.43483C5.3571 8.2475 5.53326 8.09561 5.75054 8.09561H10.8208C11.0381 8.09561 11.2142 8.24745 11.2142 8.43483V12.796ZM20.2048 19.7709C20.2048 19.9583 20.0287 20.1102 19.8114 20.1102H14.7411C14.5238 20.1102 14.3477 19.9583 14.3477 19.7709V15.4097C14.3477 15.2224 14.5238 15.0705 14.7411 15.0705H19.8114C20.0287 15.0705 20.2048 15.2223 20.2048 15.4097V19.7709ZM20.2048 12.796C20.2048 12.9834 20.0287 13.1353 19.8114 13.1353H14.7411C14.5238 13.1353 14.3477 12.9834 14.3477 12.796V8.43483C14.3477 8.2475 14.5238 8.09561 14.7411 8.09561H19.8114C20.0287 8.09561 20.2048 8.24745 20.2048 8.43483V12.796Z" fill="black" fill-opacity="0.5"/>
  <path d="M10.4274 8.77405H6.14404V12.4569H10.4274V8.77405Z" fill="black" fill-opacity="0.5"/>
  <path d="M10.4274 15.7489H6.14404V19.4317H10.4274V15.7489Z" fill="black" fill-opacity="0.5"/>
  <path d="M19.4179 15.7489H15.1345V19.4317H19.4179V15.7489Z" fill="black" fill-opacity="0.5"/>
  <path d="M15.1345 12.4569H19.4179V8.77405H15.1345V12.4569ZM16.1364 10.4481C16.2899 10.3154 16.539 10.3152 16.6928 10.4476L16.9609 10.6781L17.8624 9.90023C18.0161 9.76781 18.2651 9.76757 18.4189 9.90009C18.5726 10.0325 18.5727 10.2472 18.4191 10.3798L17.2396 11.3975C17.0861 11.5299 16.8371 11.5301 16.6834 11.3978L16.137 10.9278C15.9832 10.7955 15.9829 10.5807 16.1364 10.4481Z" fill="black" fill-opacity="0.5"/>
</svg>