<svg xmlns="http://www.w3.org/2000/svg" width="20" height="20" viewBox="0 0 20 20" fill="none">
  <path fill-rule="evenodd" clip-rule="evenodd" d="M10.9354 1.44735C11.436 1.55399 11.9034 1.7511 12.3192 2.02072L13.5084 1.16246L14.4026 2.05664L13.5443 3.24582C13.8139 3.66159 14.011 4.12877 14.1177 4.62963L15.565 4.86334V6.12772L14.1177 6.36165C14.011 6.86228 13.8139 7.32969 13.5443 7.74546L14.4026 8.93464L13.5084 9.82882L12.4247 9.04621C12.2979 8.80218 12.1353 8.57948 11.9438 8.38551C12.9197 7.75197 13.514 6.66876 13.514 5.4953C13.514 3.59289 11.9717 2.05058 10.0693 2.05058C8.16685 2.05058 6.62454 3.59312 6.62454 5.4953C6.62454 6.63352 7.18354 7.68844 8.11252 8.33028C7.85637 8.57544 7.64781 8.87021 7.50233 9.19887L6.63037 9.82815L5.73619 8.93396L6.59445 7.74479C6.32483 7.32902 6.12772 6.86183 6.02108 6.36097L4.57373 6.12704V4.86266L6.02108 4.62896C6.12772 4.12832 6.32483 3.66092 6.59445 3.24514L5.73619 2.05597L6.63037 1.16246L7.81955 2.02072C8.23532 1.7511 8.7025 1.55399 9.20314 1.44735L9.43707 0H10.7014L10.9354 1.44735ZM10.0693 2.46725C8.39696 2.46725 7.04121 3.823 7.04121 5.4953C7.04121 6.57223 7.60358 7.51782 8.45062 8.0546C8.89086 7.75063 9.42472 7.57237 10.0001 7.57237C10.6038 7.57237 11.1617 7.76836 11.6136 8.10017C12.5019 7.57237 13.0973 6.60343 13.0973 5.4953C13.0973 3.823 11.7416 2.46725 10.0693 2.46725ZM8.2984 5.84081L9.57716 6.74824C9.69659 6.83332 9.85845 6.81514 9.95656 6.71187L11.8823 4.6797C11.993 4.5634 11.9885 4.37909 11.872 4.26841C11.7557 4.15773 11.5714 4.16222 11.4607 4.27874L9.70826 6.12817L8.6356 5.36689C8.50472 5.27372 8.3231 5.30448 8.22993 5.43536C8.13699 5.56624 8.16752 5.74764 8.2984 5.84081ZM4.01158 9.233C3.03052 9.233 2.23512 10.0284 2.23512 11.0095C2.23512 11.9905 3.03052 12.7859 4.01158 12.7859C4.99265 12.7859 5.78805 11.9905 5.78805 11.0095C5.78805 10.0282 4.99287 9.233 4.01158 9.233ZM4.01158 13.2367C1.98637 13.2367 0.307565 14.7189 0 16.6577C1.02888 17.68 2.4466 18.3118 4.01158 18.3118C4.38785 18.3118 4.75558 18.2752 5.11141 18.2056C4.93877 18.0617 4.77152 17.9099 4.61055 17.7498L4.42915 17.5696L4.46912 17.317C4.68217 15.9736 5.36532 14.8046 6.33448 13.9663C5.67625 13.5066 4.87568 13.2367 4.01158 13.2367ZM15.9886 9.233C15.0076 9.233 14.2122 10.0284 14.2122 11.0095C14.2122 11.9905 15.0076 12.7859 15.9886 12.7859C16.9697 12.7859 17.7651 11.9905 17.7651 11.0095C17.7651 10.0282 16.9697 9.233 15.9886 9.233ZM15.9886 13.2367C15.1248 13.2367 14.324 13.5066 13.6657 13.9663C14.6349 14.8046 15.3181 15.9736 15.5311 17.317L15.5711 17.5696L15.3897 17.7498C15.2287 17.9097 15.0617 18.0617 14.8888 18.2056C15.2446 18.2752 15.6124 18.3118 15.9884 18.3118C17.5534 18.3118 18.9711 17.6798 20 16.6577C19.6927 14.7189 18.0139 13.2367 15.9886 13.2367ZM10.0001 8.07233C8.76828 8.07233 7.76948 9.07091 7.76948 10.303C7.76948 11.5348 8.76806 12.5336 10.0001 12.5336C11.2319 12.5336 12.2307 11.535 12.2307 10.303C12.2307 9.07113 11.2319 8.07233 10.0001 8.07233ZM10.0001 13.0998C12.543 13.0998 14.6511 14.9607 15.0372 17.3951C13.7452 18.6788 11.9654 19.4722 10.0001 19.4722C8.03507 19.4722 6.25501 18.6788 4.96301 17.3951C5.34915 14.9607 7.4572 13.0998 10.0001 13.0998Z" fill="#0f8945"/>
</svg>