<svg xmlns="http://www.w3.org/2000/svg" width="20" height="24" viewBox="0 0 20 24" fill="none">
  <path d="M4.47333 15.6814V18.8177C4.47333 19.0517 4.28609 19.2624 4.02864 19.2624C3.79458 19.2624 3.58394 19.0517 3.58394 18.8177V15.6814C3.58394 15.4239 3.79458 15.2367 4.02864 15.2367C4.26269 15.2367 4.47333 15.4473 4.47333 15.6814ZM15.7312 15.2367C15.6609 15.2367 15.5907 15.2601 15.5439 15.2835C15.4035 15.3537 15.2865 15.4941 15.2865 15.6814V18.8177C15.2865 18.9581 15.3567 19.0985 15.4737 19.1921C15.5439 19.2389 15.6375 19.2624 15.7312 19.2624C15.8248 19.2624 15.9184 19.2389 15.9886 19.1921C16.1056 19.1219 16.1759 18.9815 16.1759 18.8177V15.6814C16.1759 15.4473 15.9886 15.2367 15.7312 15.2367ZM11.8459 15.2367C11.6119 15.2367 11.4012 15.4239 11.4012 15.6814V18.8177C11.4012 18.9581 11.4714 19.0985 11.5885 19.1921C11.6587 19.2389 11.7523 19.2624 11.8459 19.2624C11.9395 19.2624 12.0332 19.2389 12.1034 19.1921C12.2204 19.1219 12.2906 18.9815 12.2906 18.8177V15.6814C12.2906 15.4473 12.08 15.2367 11.8459 15.2367ZM19.9909 13.5749L18.2823 20.9007C18.1887 21.2752 17.861 21.5326 17.4631 21.5326H2.50731C2.10942 21.5326 1.78175 21.2752 1.68813 20.9007L0.00296759 13.5749C-0.0204375 13.4345 0.0965877 13.2941 0.283828 13.2941H19.7334C19.8973 13.2941 20.0377 13.4345 19.9909 13.5749ZM5.2457 15.6814C5.2457 15.0026 4.70738 14.4643 4.02864 14.4643C3.34989 14.4643 2.81157 15.0026 2.81157 15.6814V18.8177V18.8411C2.81157 19.0751 2.88179 19.2858 2.99881 19.473C3.20946 19.8007 3.58394 20.0347 4.02864 20.0347C4.44993 20.0347 4.82441 19.8241 5.05846 19.473C5.17548 19.2858 5.2457 19.0751 5.2457 18.8411V15.6814ZM9.15434 15.6814C9.15434 15.0026 8.61602 14.4643 7.93728 14.4643C7.25853 14.4643 6.72021 15.0026 6.72021 15.6814V18.8177V18.8411C6.72021 19.0751 6.79043 19.2858 6.90746 19.473C7.1181 19.8007 7.49258 20.0347 7.93728 20.0347C8.35857 20.0347 8.73305 19.8241 8.9437 19.473C9.06072 19.2858 9.13093 19.0751 9.13093 18.8411V15.6814H9.15434ZM13.063 15.6814C13.063 15.0026 12.5247 14.4643 11.8459 14.4643C11.1672 14.4643 10.6289 15.0026 10.6289 15.6814V18.8177C10.6289 18.9581 10.6523 19.0751 10.6757 19.1921C10.7693 19.4496 10.9331 19.6836 11.1438 19.8241C11.331 19.9645 11.5885 20.0347 11.8459 20.0347C12.1034 20.0347 12.3374 19.9645 12.5481 19.8241C12.7587 19.6836 12.946 19.4496 13.0162 19.1921C13.0396 19.0751 13.063 18.9581 13.063 18.8177V17.5304V16.8516V15.6814ZM16.9716 15.6814C16.9716 15.0026 16.4333 14.4643 15.7546 14.4643C15.6843 14.4643 15.6141 14.4643 15.5673 14.4877C15.3099 14.5345 15.0758 14.6516 14.8886 14.8388C14.6779 15.0494 14.5375 15.3537 14.5375 15.6814V16.875V17.5538V18.8411C14.5375 18.9815 14.5609 19.0985 14.5843 19.2155C14.6779 19.473 14.8418 19.707 15.0524 19.8475C15.2396 19.9879 15.4971 20.0581 15.7546 20.0581C16.012 20.0581 16.2461 19.9879 16.4567 19.8475C16.6674 19.707 16.8546 19.473 16.9248 19.2155C16.9482 19.0985 16.9716 18.9815 16.9716 18.8411V15.6814ZM7.93728 15.2367C7.67982 15.2367 7.49258 15.4239 7.49258 15.6814V18.8177V18.8411C7.51599 19.0751 7.70323 19.2624 7.93728 19.2624C8.17133 19.2624 8.35857 19.0751 8.38197 18.8411V18.8177V15.6814C8.38197 15.4473 8.17133 15.2367 7.93728 15.2367ZM10.2076 8.70668V12.7323H14.8652V8.91732C14.8652 8.8003 14.7716 8.70668 14.6545 8.70668H10.2076ZM9.8799 6.9747V8.05134H14.6779C15.1694 8.05134 15.5673 8.44922 15.5673 8.94073V12.7557H18.0951V6.9747C18.0951 5.68743 17.0652 4.6576 15.778 4.6576H12.197C10.9097 4.6342 9.8799 5.68743 9.8799 6.9747ZM12.0332 3.79162V4.09588C12.08 4.09588 12.1268 4.09588 12.1736 4.09588H15.6141V3.79162C15.6141 3.53416 15.4035 3.34692 15.1694 3.34692H12.5013C12.2438 3.32352 12.0332 3.53416 12.0332 3.79162ZM14.7716 0.608531C14.7716 0.280861 14.4907 0 14.163 0H12.8757V2.7618H14.7481V0.608531H14.7716ZM12.3374 0H9.83309C9.62244 0 9.4352 0.163835 9.4352 0.397886V1.14685H12.3374V0ZM10.3714 2.03624C10.582 2.03624 10.7693 1.8724 10.7693 1.63835V1.3809H9.66925V1.66176C9.66925 1.8724 9.83309 2.05964 10.0671 2.05964H10.3714V2.03624ZM2.0158 11.4217V12.7323H5.36272V11.6323C5.36272 11.5153 5.2691 11.4217 5.15208 11.4217H2.0158ZM6.04147 11.6323V12.7323H9.8799V10.7429C9.8799 9.66628 9.13093 8.75349 8.12452 8.49603C7.79685 8.40241 7.5628 8.09815 7.5628 7.74707V7.67686H3.98182V7.74707C3.98182 8.09815 3.77118 8.40241 3.4201 8.49603C2.41369 8.75349 1.66473 9.66628 1.66473 10.7429H5.12867C5.64358 10.7429 6.04147 11.1642 6.04147 11.6323ZM3.67756 7.11513H7.86706C8.12452 7.11513 8.33516 6.90449 8.33516 6.64703V6.27255C8.33516 6.0151 8.12452 5.80445 7.86706 5.80445H3.67756C3.4201 5.80445 3.20946 6.0151 3.20946 6.27255V6.64703C3.20946 6.90449 3.4201 7.11513 3.67756 7.11513ZM1.89878 22.9135C1.89878 23.1476 2.08602 23.3582 2.34347 23.3582H17.6972C17.9312 23.3582 18.1419 23.171 18.1419 22.9135V22.071H1.89878V22.9135Z" fill="#0f8945"/>
</svg>