<svg xmlns="http://www.w3.org/2000/svg" width="20" height="16" viewBox="0 0 20 16" fill="none">
<path d="M19.2134 6.1072C18.7096 4.9162 17.9892 3.847 17.0712 2.929C16.153 2.011 15.084 1.2904 13.8924 0.7868C12.659 0.2646 11.3496 0 9.9998 0C8.6506 0 7.341 0.2646 6.1068 0.7868C4.916 1.2904 3.8466 2.011 2.9286 2.929C2.0112 3.847 1.29 4.9162 0.7864 6.1072C0.2644 7.3414 0 8.651 0 10.0006C0 11.3498 0.2644 12.659 0.7864 13.8936C1.092 14.6156 1.4776 15.2924 1.938 15.9186H4.303H15.6968H18.062C18.5222 15.2924 18.9082 14.6156 19.2134 13.8936C19.7352 12.659 20 11.3498 20 10.0006C20 8.651 19.7352 7.3414 19.2134 6.1072ZM3.0054 14.3092C2.232 13.057 1.7848 11.5808 1.7848 10.0006C1.7848 5.4634 5.463 1.7856 9.9998 1.7856C14.537 1.7856 18.2144 5.4634 18.2144 10.0006C18.2144 11.5808 17.7684 13.057 16.9942 14.3092H3.0054Z" fill="white"/>
<path d="M16.2178 11.1236C16.8758 11.1236 17.4092 10.5902 17.4092 9.93224C17.4092 9.27425 16.8758 8.74084 16.2178 8.74084C15.5598 8.74084 15.0264 9.27425 15.0264 9.93224C15.0264 10.5902 15.5598 11.1236 16.2178 11.1236Z" fill="white"/>
<path d="M14.9991 7.40047C15.6569 7.40047 16.1903 6.86715 16.1903 6.20927C16.1903 5.55138 15.6569 5.01807 14.9991 5.01807C14.3412 5.01807 13.8079 5.55138 13.8079 6.20927C13.8079 6.86715 14.3412 7.40047 14.9991 7.40047Z" fill="white"/>
<path d="M11.825 5.10445C12.4829 5.10445 13.0162 4.57113 13.0162 3.91325C13.0162 3.25536 12.4829 2.72205 11.825 2.72205C11.1671 2.72205 10.6338 3.25536 10.6338 3.91325C10.6338 4.57113 11.1671 5.10445 11.825 5.10445Z" fill="white"/>
<path d="M7.90775 5.11262C8.56563 5.11262 9.09895 4.57931 9.09895 3.92142C9.09895 3.26354 8.56563 2.73022 7.90775 2.73022C7.24987 2.73022 6.71655 3.26354 6.71655 3.92142C6.71655 4.57931 7.24987 5.11262 7.90775 5.11262Z" fill="white"/>
<path d="M4.74345 7.42195C5.40133 7.42195 5.93465 6.88863 5.93465 6.23075C5.93465 5.57287 5.40133 5.03955 4.74345 5.03955C4.08556 5.03955 3.55225 5.57287 3.55225 6.23075C3.55225 6.88863 4.08556 7.42195 4.74345 7.42195Z" fill="white"/>
<path d="M3.5411 11.1502C4.19887 11.1502 4.7321 10.617 4.7321 9.95919C4.7321 9.30142 4.19887 8.76819 3.5411 8.76819C2.88333 8.76819 2.3501 9.30142 2.3501 9.95919C2.3501 10.617 2.88333 11.1502 3.5411 11.1502Z" fill="white"/>
<path d="M10.4764 8.32301L9.87919 3.91321L9.28159 8.32301C8.62119 8.56641 8.15039 9.20061 8.15039 9.94561C8.15039 10.9004 8.92479 11.6744 9.87939 11.6744C10.834 11.6744 11.6082 10.901 11.6082 9.94561C11.6082 9.20141 11.137 8.56641 10.4764 8.32301Z" fill="white"/>
</svg>