<svg xmlns="http://www.w3.org/2000/svg" width="20" height="25" viewBox="0 0 20 25" fill="none">
  <path d="M15.407 0H4.59297C3.37484 0 2.2066 0.483901 1.34525 1.34525C0.483901 2.2066 0 3.37484 0 4.59297L0 15.407C0 16.6252 0.483901 17.7934 1.34525 18.6548C2.2066 19.5161 3.37484 20 4.59297 20H15.407C16.6252 20 17.7934 19.5161 18.6548 18.6548C19.5161 17.7934 20 16.6252 20 15.407V4.59297C20 3.37484 19.5161 2.2066 18.6548 1.34525C17.7934 0.483901 16.6252 0 15.407 0ZM9.17969 4.94297C9.17969 4.72541 9.26611 4.51676 9.41995 4.36292C9.57379 4.20908 9.78244 4.12266 10 4.12266C10.2176 4.12266 10.4262 4.20908 10.58 4.36292C10.7339 4.51676 10.8203 4.72541 10.8203 4.94297V10.8984C10.8203 11.116 10.7339 11.3246 10.58 11.4785C10.4262 11.6323 10.2176 11.7188 10 11.7188C9.78244 11.7188 9.57379 11.6323 9.41995 11.4785C9.26611 11.3246 9.17969 11.116 9.17969 10.8984V4.94297ZM10 15.8594C6.76914 15.8594 4.14062 13.3367 4.14062 10.2344C4.14062 8.13164 5.34844 6.22031 7.29219 5.24648C7.70156 5.04141 8.20664 5.19375 8.42031 5.58633C8.63398 5.97891 8.47539 6.46367 8.06602 6.66875C6.67617 7.36719 5.8125 8.7332 5.8125 10.2344C5.8125 12.45 7.69102 14.2527 10 14.2527C12.309 14.2527 14.1875 12.452 14.1875 10.2344C14.1875 8.72461 13.3184 7.35547 11.9195 6.66172C11.5094 6.4582 11.3488 5.97422 11.5605 5.58047C11.7723 5.18672 12.277 5.03359 12.6871 5.23594C14.6438 6.20859 15.8594 8.125 15.8594 10.2344C15.8594 13.3367 13.2309 15.8594 10 15.8594Z" fill="white"/>
</svg>