<svg xmlns="http://www.w3.org/2000/svg" width="20" height="25" viewBox="0 0 20 25" fill="none">
  <path fill-rule="evenodd" clip-rule="evenodd" d="M7.08353 14.4136L3.83033 16.292C3.75073 16.3452 3.64433 16.352 3.55593 16.3008L0.28833 14.414V18.038L3.68673 20L7.08393 18.0388V14.4136H7.08353ZM19.7115 1.4124C19.7115 1.024 19.5527 0.6712 19.2963 0.4148C19.0399 0.1592 18.6871 0 18.2987 0H10.0143H8.74513C8.35673 0 8.00393 0.1588 7.74753 0.4152C7.49153 0.6712 7.33233 1.0244 7.33233 1.4128V5.3076L8.88233 6.2024C8.93873 6.0908 9.01273 5.9892 9.10033 5.9016C9.31313 5.6888 9.60713 5.5572 9.93153 5.5572C10.2559 5.5572 10.5499 5.6888 10.7627 5.9016C10.9755 6.1144 11.1071 6.4084 11.1071 6.7328C11.1071 6.9704 11.0367 7.1916 10.9155 7.3764L11.3027 7.6V11.6904L12.3687 12.306C12.4147 12.074 12.5295 11.8664 12.6903 11.7052C12.9031 11.4924 13.1971 11.3608 13.5215 11.3608C13.8459 11.3608 14.1399 11.4924 14.3527 11.7052C14.5655 11.918 14.6971 12.212 14.6971 12.5364C14.6971 12.8608 14.5655 13.1548 14.3527 13.3676C14.3347 13.3856 14.3163 13.4028 14.2975 13.4196L14.9603 13.802V14.6468H18.2987H18.2999H18.3007C18.6883 14.6464 19.0403 14.4872 19.2963 14.2316C19.5523 13.9756 19.7115 13.6224 19.7115 13.234C19.7115 9.4076 19.7115 5.4944 19.7115 1.4124ZM9.69073 1.4264H17.4735C17.7311 1.4264 17.9651 1.5316 18.1347 1.7012C18.3043 1.8708 18.4095 2.1048 18.4095 2.3624V3.6172C18.4095 3.8748 18.3043 4.1088 18.1347 4.2784C17.9651 4.448 17.7311 4.5532 17.4735 4.5532H9.69073C9.43313 4.5532 9.19913 4.448 9.02953 4.2784C8.85993 4.1088 8.75473 3.8748 8.75473 3.6172V2.362C8.75473 2.1044 8.85993 1.8704 9.02953 1.7008C9.19913 1.5316 9.43313 1.4264 9.69073 1.4264ZM10.4279 6.2368C10.5547 6.3636 10.6335 6.5392 10.6335 6.7328C10.6335 6.884 10.5855 7.024 10.5043 7.1388L9.29433 6.44C9.32953 6.364 9.37753 6.2952 9.43593 6.2364C9.56273 6.1096 9.73833 6.0308 9.93193 6.0308C10.1255 6.0312 10.3011 6.1096 10.4279 6.2368ZM18.2875 10.0856V12.5364C18.2875 12.8608 18.1559 13.1548 17.9431 13.3676C17.7303 13.5804 17.4363 13.712 17.1119 13.712C16.7875 13.712 16.4935 13.5804 16.2807 13.3676C16.0679 13.1548 15.9363 12.8608 15.9363 12.5364V10.0856C15.9363 9.7612 16.0679 9.4672 16.2807 9.2544C16.4935 9.0416 16.7875 8.91 17.1119 8.91C17.4363 8.91 17.7303 9.0416 17.9431 9.2544C18.1559 9.4672 18.2875 9.7608 18.2875 10.0856ZM17.8135 12.5364C17.8135 12.73 17.7351 12.9056 17.6079 13.0324C17.4811 13.1592 17.3055 13.238 17.1119 13.238C16.9183 13.238 16.7427 13.1596 16.6159 13.0324C16.4891 12.9056 16.4103 12.73 16.4103 12.5364V10.0856C16.4103 9.892 16.4887 9.7164 16.6159 9.5896C16.7427 9.4628 16.9183 9.384 17.1119 9.384C17.3055 9.384 17.4811 9.4624 17.6079 9.5896C17.7347 9.7164 17.8135 9.892 17.8135 10.0856V12.5364ZM14.0179 12.0404C14.1447 12.1672 14.2235 12.3428 14.2235 12.5364C14.2235 12.73 14.1451 12.9056 14.0179 13.0324C13.9675 13.0828 13.9095 13.1252 13.8459 13.1588L12.8207 12.5668C12.8203 12.5568 12.8199 12.5464 12.8199 12.5364C12.8199 12.3428 12.8983 12.1672 13.0255 12.0404C13.1523 11.9136 13.3279 11.8348 13.5215 11.8348C13.7155 11.8348 13.8911 11.9132 14.0179 12.0404ZM13.5219 8.4588C13.8463 8.4588 14.1403 8.5904 14.3531 8.8032C14.5659 9.016 14.6975 9.31 14.6975 9.6344C14.6975 9.9588 14.5659 10.2528 14.3531 10.4656C14.1403 10.6784 13.8463 10.81 13.5219 10.81C13.1975 10.81 12.9035 10.6784 12.6907 10.4656C12.4779 10.2528 12.3463 9.9588 12.3463 9.6344C12.3463 9.31 12.4779 9.016 12.6907 8.8032C12.9035 8.5904 13.1975 8.4588 13.5219 8.4588ZM14.0179 9.1384C14.1447 9.2652 14.2235 9.4408 14.2235 9.6344C14.2235 9.828 14.1451 10.0036 14.0179 10.1304C13.8911 10.2572 13.7155 10.336 13.5219 10.336C13.3283 10.336 13.1527 10.2576 13.0259 10.1304C12.8991 10.0036 12.8203 9.828 12.8203 9.6344C12.8203 9.4408 12.8987 9.2652 13.0259 9.1384C13.1527 9.0116 13.3283 8.9328 13.5219 8.9328C13.7155 8.9328 13.8911 9.0116 14.0179 9.1384ZM17.1119 5.5572C17.4363 5.5572 17.7303 5.6888 17.9431 5.9016C18.1559 6.1144 18.2875 6.4084 18.2875 6.7328C18.2875 7.0572 18.1559 7.3512 17.9431 7.564C17.7303 7.7768 17.4363 7.9084 17.1119 7.9084C16.7875 7.9084 16.4935 7.7768 16.2807 7.564C16.0679 7.3512 15.9363 7.0572 15.9363 6.7328C15.9363 6.4084 16.0679 6.1144 16.2807 5.9016C16.4935 5.6888 16.7875 5.5572 17.1119 5.5572ZM17.6079 6.2368C17.7347 6.3636 17.8135 6.5392 17.8135 6.7328C17.8135 6.9264 17.7351 7.102 17.6079 7.2288C17.4811 7.3556 17.3055 7.4344 17.1119 7.4344C16.9183 7.4344 16.7427 7.356 16.6159 7.2288C16.4891 7.102 16.4103 6.9264 16.4103 6.7328C16.4103 6.5392 16.4887 6.3636 16.6159 6.2368C16.7427 6.11 16.9183 6.0312 17.1119 6.0312C17.3055 6.0312 17.4811 6.1096 17.6079 6.2368ZM13.5219 5.5572C13.8463 5.5572 14.1403 5.6888 14.3531 5.9016C14.5659 6.1144 14.6975 6.4084 14.6975 6.7328C14.6975 7.0572 14.5659 7.3512 14.3531 7.564C14.1403 7.7768 13.8463 7.9084 13.5219 7.9084C13.1975 7.9084 12.9035 7.7768 12.6907 7.564C12.4779 7.3512 12.3463 7.0572 12.3463 6.7328C12.3463 6.4084 12.4779 6.1144 12.6907 5.9016C12.9035 5.6888 13.1975 5.5572 13.5219 5.5572ZM14.0179 6.2368C14.1447 6.3636 14.2235 6.5392 14.2235 6.7328C14.2235 6.9264 14.1451 7.102 14.0179 7.2288C13.8911 7.3556 13.7155 7.4344 13.5219 7.4344C13.3283 7.4344 13.1527 7.356 13.0259 7.2288C12.8991 7.102 12.8203 6.9264 12.8203 6.7328C12.8203 6.5392 12.8987 6.3636 13.0259 6.2368C13.1527 6.11 13.3283 6.0312 13.5219 6.0312C13.7155 6.0312 13.8911 6.1096 14.0179 6.2368ZM0.54713 13.9636L3.68633 12.1512L6.82593 13.964L3.68673 15.7764L0.54713 13.9636ZM7.86273 13.9636L11.0019 12.1512L14.1415 13.964L11.0023 15.7764L7.86273 13.9636ZM14.3995 14.4136V18.0388L11.0023 20L7.60433 18.038V14.414L10.8719 16.3004L10.8723 16.3C10.9499 16.3448 11.0483 16.348 11.1315 16.3004L14.3995 14.4136ZM10.7415 8.078V11.7032L7.34393 13.6648L3.94633 11.7032V8.0784L7.21393 9.9648C7.30233 10.016 7.40833 10.0092 7.48833 9.956L10.7415 8.078ZM4.20473 7.628L7.34393 5.8156L10.4835 7.6284L7.34433 9.4408L4.20473 7.628Z" fill="white"/>
</svg>