<svg xmlns="http://www.w3.org/2000/svg" width="22" height="20" viewBox="0 0 22 20" fill="none">
  <path d="M21.3125 14.0129C21.3109 15.23 20.891 16.4095 20.1233 17.354C19.3556 18.2984 18.2867 18.9504 17.0956 19.2006C17.1537 19.0141 17.1847 18.8203 17.1875 18.625V11.376C17.1875 11.2702 17.1783 11.1665 17.1704 11.0625H17.9092C19.7858 11.0625 21.3125 12.3861 21.3125 14.0129ZM4.8125 11.376C4.8125 11.2702 4.82173 11.1665 4.82962 11.0625H4.09076C2.21423 11.0625 0.6875 12.3861 0.6875 14.0129C0.689132 15.23 1.10896 16.4096 1.87666 17.354C2.64437 18.2984 3.7133 18.9504 4.9044 19.2006C4.84629 19.0141 4.81534 18.8203 4.8125 18.625V11.376ZM12.4092 8.3125H9.59076C8.73407 8.27085 7.89563 8.56948 7.25815 9.14332C6.62068 9.71716 6.23584 10.5197 6.1875 11.376V18.625C6.18748 18.7153 6.20524 18.8047 6.23978 18.8881C6.27433 18.9715 6.32497 19.0473 6.38881 19.1112C6.45266 19.175 6.52846 19.2257 6.61188 19.2602C6.6953 19.2948 6.78471 19.3125 6.875 19.3125H15.125C15.2153 19.3125 15.3047 19.2948 15.3881 19.2602C15.4715 19.2257 15.5473 19.175 15.6112 19.1112C15.675 19.0473 15.7257 18.9715 15.7602 18.8881C15.7948 18.8047 15.8125 18.7153 15.8125 18.625V11.376C15.7642 10.5197 15.3793 9.71716 14.7418 9.14332C14.1044 8.56948 13.2659 8.27085 12.4092 8.3125ZM11 6.9375C11.6799 6.9375 12.3445 6.7359 12.9098 6.35818C13.4751 5.98046 13.9157 5.4436 14.1758 4.81548C14.436 4.18735 14.5041 3.49619 14.3714 2.82938C14.2388 2.16257 13.9114 1.55007 13.4307 1.06932C12.9499 0.588579 12.3374 0.261189 11.6706 0.128552C11.0038 -0.00408455 10.3126 0.0639894 9.68453 0.324166C9.05641 0.584342 8.51954 1.02493 8.14182 1.59023C7.76411 2.15552 7.5625 2.82013 7.5625 3.5C7.56357 4.41136 7.92608 5.28507 8.5705 5.9295C9.21493 6.57392 10.0886 6.93643 11 6.9375ZM4.8125 9.6875C5.3564 9.6875 5.88808 9.52622 6.34032 9.22404C6.79255 8.92187 7.14503 8.49238 7.35317 7.98988C7.56131 7.48738 7.61577 6.93445 7.50966 6.401C7.40355 5.86756 7.14164 5.37755 6.75704 4.99296C6.37245 4.60836 5.88245 4.34645 5.349 4.24034C4.81555 4.13423 4.26262 4.18869 3.76012 4.39683C3.25762 4.60497 2.82813 4.95745 2.52596 5.40968C2.22378 5.86192 2.0625 6.3936 2.0625 6.9375C2.06328 7.66661 2.35326 8.36563 2.86881 8.88119C3.38437 9.39674 4.08339 9.68672 4.8125 9.6875ZM17.1875 9.6875C17.7314 9.6875 18.2631 9.52622 18.7153 9.22404C19.1676 8.92187 19.52 8.49238 19.7282 7.98988C19.9363 7.48738 19.9908 6.93445 19.8847 6.401C19.7786 5.86756 19.5166 5.37755 19.132 4.99296C18.7474 4.60836 18.2574 4.34645 17.724 4.24034C17.1905 4.13423 16.6376 4.18869 16.1351 4.39683C15.6326 4.60497 15.2031 4.95745 14.901 5.40968C14.5988 5.86192 14.4375 6.3936 14.4375 6.9375C14.4383 7.66661 14.7283 8.36563 15.2438 8.88119C15.7594 9.39674 16.4584 9.68672 17.1875 9.6875Z" fill="white"/>
</svg>