<svg xmlns="http://www.w3.org/2000/svg" width="26" height="33" viewBox="0 0 26 33" fill="none">
  <path d="M16.0311 8.36498L13.6131 2.34442L7.76593 4.693L10.1839 10.7138L16.0311 8.36498ZM10.069 5.84298C10.0253 5.7342 10.0267 5.61253 10.0727 5.50472C10.1187 5.39691 10.2057 5.31181 10.3145 5.26812L12.0825 4.55832C12.1365 4.53533 12.1947 4.52336 12.2535 4.52311C12.3122 4.52285 12.3705 4.53433 12.4247 4.55685C12.479 4.57938 12.5283 4.61251 12.5696 4.6543C12.6109 4.69608 12.6435 4.7457 12.6654 4.80023C12.6874 4.85476 12.6982 4.91312 12.6973 4.97189C12.6964 5.03066 12.6838 5.08866 12.6602 5.14249C12.6366 5.19632 12.6025 5.24491 12.5599 5.28541C12.5173 5.32591 12.4671 5.35751 12.4121 5.37836L10.6441 6.08842C10.5918 6.10958 10.536 6.12044 10.4796 6.1204C10.3911 6.1204 10.3048 6.0939 10.2316 6.0443C10.1584 5.99471 10.1018 5.92431 10.069 5.8422V5.84298ZM13.6092 19.174L21.4612 16.0189L18.3061 8.16686L10.4541 11.322L13.6092 19.174ZM14.7464 11.8901L15.5667 11.5604L16.1595 13.0359L17.6348 12.4431L17.9644 13.2631L16.4889 13.8559L17.0817 15.3314L16.2614 15.6611L15.6686 14.1856L14.1934 14.7781L13.8637 13.9581L15.34 13.3653L14.7464 11.8901ZM12.174 19.0016L6.52599 4.91218C6.49313 4.83026 6.43648 4.76005 6.36336 4.71061C6.29024 4.66117 6.20398 4.63475 6.11571 4.63476H3.57603C3.45881 4.63476 3.34638 4.68133 3.26349 4.76422C3.1806 4.84711 3.13403 4.95954 3.13403 5.07676C3.13403 5.19399 3.1806 5.30641 3.26349 5.3893C3.34638 5.47219 3.45881 5.51876 3.57603 5.51876H5.81593L11.3373 19.2902C11.5983 19.1483 11.881 19.0507 12.174 19.0016ZM21.69 17.8287C21.6686 17.7747 21.6367 17.7255 21.5963 17.6838C21.5558 17.6422 21.5076 17.6089 21.4543 17.5859C21.401 17.5629 21.3436 17.5506 21.2856 17.5497C21.2275 17.5489 21.1699 17.5595 21.1159 17.5809L14.8156 20.0829C14.9908 20.3241 15.1247 20.5928 15.2116 20.878L21.4435 18.4038C21.4976 18.3824 21.5469 18.3506 21.5887 18.31C21.6304 18.2695 21.6638 18.2212 21.6868 18.1677C21.7098 18.1143 21.7221 18.0568 21.7228 17.9987C21.7236 17.9405 21.7129 17.8827 21.6913 17.8287H21.69ZM12.6292 19.6622C12.2342 19.6622 11.8481 19.7793 11.5197 19.9987C11.1913 20.2181 10.9353 20.53 10.7841 20.895C10.633 21.2599 10.5935 21.6614 10.6706 22.0488C10.7477 22.4362 10.9379 22.792 11.2173 23.0713C11.4966 23.3505 11.8525 23.5406 12.24 23.6176C12.6274 23.6945 13.0289 23.6549 13.3938 23.5036C13.7586 23.3523 14.0704 23.0962 14.2897 22.7677C14.509 22.4392 14.626 22.053 14.6258 21.658C14.6249 21.1288 14.4143 20.6215 14.04 20.2474C13.6658 19.8733 13.1584 19.6629 12.6292 19.6622Z" fill="white"/>
</svg>