<svg xmlns="http://www.w3.org/2000/svg" width="20" height="15" viewBox="0 0 20 15" fill="none">
  <path d="M9.99997 5.87937C11.4892 5.87937 12.7009 4.66773 12.7009 3.17813C12.7009 1.68887 11.4892 0.477234 9.99997 0.477234C8.51071 0.477234 7.29907 1.68887 7.29907 3.17813C7.29907 4.66773 8.51071 5.87937 9.99997 5.87937Z" fill="white"/>
  <path d="M5.30273 12.0872V14.0919H14.6973V12.0872C14.6973 9.49717 12.59 7.38989 10 7.38989C7.41002 7.38989 5.30273 9.49717 5.30273 12.0872Z" fill="white"/>
  <path d="M16.057 4.65005C17.3428 4.65005 18.3785 3.60718 18.3785 2.32147C18.3785 1.04287 17.3428 4.29574e-05 16.057 4.29574e-05C14.7653 -0.00784804 13.7344 1.07252 13.7356 2.32147C13.7317 3.58425 14.7727 4.65057 16.057 4.65005Z" fill="white"/>
  <path d="M16.057 5.60004C14.9213 5.60004 13.8999 6.07864 13.1785 6.85719C14.7285 7.80005 15.8284 9.41434 16.0713 11.2929H19.9999V9.53576C19.9999 7.36434 18.2285 5.60004 16.057 5.60004Z" fill="white"/>
  <path d="M3.94277 4.65005C5.22716 4.65057 6.26803 3.58429 6.26419 2.32147C6.26537 1.07247 5.23449 -0.00784804 3.94277 4.29591e-05C2.65702 4.29591e-05 1.62134 1.04287 1.62134 2.32147C1.62134 3.60718 2.65702 4.65005 3.94277 4.65005Z" fill="white"/>
  <path d="M6.82142 6.85719C6.09998 6.07864 5.07856 5.60004 3.94287 5.60004C1.77141 5.60004 0 7.36434 0 9.53576V11.2929H3.92857C4.17145 9.41434 5.27143 7.80005 6.82142 6.85719Z" fill="white"/>
</svg>